<svg id="fe9f2267-8fd5-4ea8-bcf0-1f82951612fe" data-name="Layer 1" xmlns="http://www.w3.org/2000/svg" viewBox="0 0 300 300"><title>Base Icons</title><rect x="-0.45" y="-0.44" width="300" height="300" rx="29" style="fill:#e9eaea"/><polygon points="221.32 119.16 150 72.04 78.68 119.16 150 166.28 221.32 119.16" style="fill:#fbb85e"/><path d="M69.22,122.5l78.57,51.92a4,4,0,0,0,2.21.66,4,4,0,0,0,2.2-.66l78.58-51.92a4,4,0,0,0,0-6.68L152.2,63.91a4,4,0,0,0-4.41,0L69.22,115.82a4,4,0,0,0,0,6.68ZM150,72l71.32,47.12L150,166.28,78.68,119.16Z" style="fill:#231f20"/><path d="M226.37,147.08,150,197.54,73.63,147.08a4,4,0,0,0-4.41,6.67l78.57,51.92a4,4,0,0,0,2.21.66,4,4,0,0,0,2.2-.66l78.58-51.92a4,4,0,1,0-4.41-6.67Z" style="fill:#231f20"/><path d="M226.37,177.5,150,228,73.63,177.5a4,4,0,0,0-4.41,6.68l78.57,51.91a4,4,0,0,0,2.21.66,4,4,0,0,0,2.2-.66l78.58-51.91a4,4,0,0,0-4.41-6.68Z" style="fill:#231f20"/></svg>