<svg id="b3b09083-319f-470a-8cb1-32d72afbd557" data-name="Layer 1" xmlns="http://www.w3.org/2000/svg" viewBox="0 0 300 300"><title>Base Icons</title><rect x="99.56" y="67.47" width="100" height="166" rx="4" style="fill:#fbb85e"/><path d="M243.56,69a5.49,5.49,0,0,0-7.65-5.18L209.52,74.93a5.75,5.75,0,0,0-2.63,2.14,5.5,5.5,0,0,0,6.76,8.06l18.91-8V221l-18.05-11.8a5.5,5.5,0,0,0-6,9.21l26.56,17.36a5.43,5.43,0,0,0,3,.9,5.5,5.5,0,0,0,5.5-5.5Z" style="fill:#fbb85e"/><path d="M252.56,69.05V231a5.65,5.65,0,0,0,4.34,5.6,5.51,5.51,0,0,0,6.66-5.38V68.83a5.51,5.51,0,0,0-6.66-5.38A5.65,5.65,0,0,0,252.56,69.05Z" style="fill:#fbb85e"/><path d="M86.46,85.12a5.51,5.51,0,0,0,6.77-8.06,5.72,5.72,0,0,0-2.64-2.14L64.2,63.75a5.53,5.53,0,0,0-6.58,1.79,5.62,5.62,0,0,0-1.06,3.39V231.2a5.51,5.51,0,0,0,5.5,5.5,5.56,5.56,0,0,0,3-.9l26.55-17.36a5.5,5.5,0,0,0-6-9.21l-18,11.8V77.12Z" style="fill:#fbb85e"/><path d="M36.56,69V231a5.65,5.65,0,0,0,4.34,5.6,5.51,5.51,0,0,0,6.66-5.38V68.82a5.51,5.51,0,0,0-6.66-5.38A5.63,5.63,0,0,0,36.56,69Z" style="fill:#fbb85e"/></svg>