<svg id="f046a4ed-02a1-4fee-afe3-7658700cffd2" data-name="Layer 1" xmlns="http://www.w3.org/2000/svg" viewBox="0 0 300 300"><title>Base Icons</title><path d="M98.06,95.86H200.64a5.63,5.63,0,0,0,5.59-4.36,5.51,5.51,0,0,0-5.39-6.64H98.27a5.63,5.63,0,0,0-5.59,4.36A5.5,5.5,0,0,0,98.06,95.86Z" style="fill:#fbb85e"/><path d="M200.84,114.86H98.27a5.63,5.63,0,0,0-5.59,4.36,5.5,5.5,0,0,0,5.38,6.64H200.64a5.63,5.63,0,0,0,5.59-4.36A5.51,5.51,0,0,0,200.84,114.86Z" style="fill:#fbb85e"/><path d="M200.84,144.86H98.27a5.63,5.63,0,0,0-5.59,4.36,5.5,5.5,0,0,0,5.38,6.64H200.64a5.63,5.63,0,0,0,5.59-4.36A5.51,5.51,0,0,0,200.84,144.86Z" style="fill:#fbb85e"/><path d="M158.19,175.86H98.27a5.63,5.63,0,0,0-5.59,4.36,5.5,5.5,0,0,0,5.38,6.64H158a5.64,5.64,0,0,0,5.6-4.36A5.51,5.51,0,0,0,158.19,175.86Z" style="fill:#fbb85e"/><path d="M142.81,205.86H98.27a5.63,5.63,0,0,0-5.59,4.36,5.5,5.5,0,0,0,5.38,6.64H142.6a5.64,5.64,0,0,0,5.6-4.36A5.52,5.52,0,0,0,142.81,205.86Z" style="fill:#fbb85e"/><path d="M169.59,223.81a41.25,41.25,0,0,1,41.25-41.25h.09a41.24,41.24,0,0,1,10.43,1.33v-121h-142v174h92.35a41.07,41.07,0,0,1-2.12-13.05Z" style="fill:none"/><path d="M231.89,204.06a5.18,5.18,0,0,0-1.54,1.08l-9.46,9.79-20.32,21-10-10.05a5.34,5.34,0,0,0-8.24.86,5.46,5.46,0,0,0,.84,6.82l3.79,3.78,10,10a5.15,5.15,0,0,0,1.53,1,5.32,5.32,0,0,0,2.23.51h.05a5.48,5.48,0,0,0,3.78-1.62l9.57-9.89,6.86-7.09,11-11.38,6-6.17a5.48,5.48,0,0,0,.65-7A5.32,5.32,0,0,0,231.89,204.06Z" style="fill:none"/><path d="M232.36,188.54V61.63c0-5.48-3.64-9.77-8.3-9.77H76.66c-4.65,0-8.3,4.29-8.3,9.77V238.09c0,5.48,3.65,9.77,8.3,9.77H177.34a41.29,41.29,0,0,0,33.58,17.22H211a41.26,41.26,0,0,0,41.26-41.26h0A41.21,41.21,0,0,0,232.36,188.54Zm-153,48.32v-174h142v121a41.24,41.24,0,0,0-10.43-1.33h-.09a41.25,41.25,0,0,0-41.25,41.25h0a41.07,41.07,0,0,0,2.12,13.05Zm159.15-31.13a5.48,5.48,0,0,1-.65,7l-6,6.17-11,11.38L214,237.35l-9.57,9.89a5.48,5.48,0,0,1-3.78,1.62h-.05a5.32,5.32,0,0,1-2.23-.51,5.15,5.15,0,0,1-1.53-1l-10-10-3.79-3.78a5.46,5.46,0,0,1-.84-6.82,5.34,5.34,0,0,1,8.24-.86l10,10.05,20.32-21,9.46-9.79a5.18,5.18,0,0,1,1.54-1.08A5.32,5.32,0,0,1,238.51,205.73Z" style="fill:#fbb85e"/></svg>