<svg id="ffdabe45-3b6e-4bb9-ab63-c164a1d0af89" data-name="Layer 1" xmlns="http://www.w3.org/2000/svg" viewBox="0 0 300 300"><title>Base Icons</title><path d="M255.06,63.91h-211a5.5,5.5,0,0,0-5.5,5.5v165a5.5,5.5,0,0,0,5.5,5.5h211a5.5,5.5,0,0,0,5.5-5.5v-165A5.5,5.5,0,0,0,255.06,63.91Zm-5.5,11v154h-200v-154Z" style="fill:#fbb85e"/><path d="M70.24,214.91H227.09a4.3,4.3,0,0,0,2-.43,4.4,4.4,0,0,0,1.83-6.17l-43.55-73.73a4.37,4.37,0,0,0-7.51,0l-17.68,29.34L127.44,113a4.37,4.37,0,0,0-7.42.32L66.38,208.38a4.4,4.4,0,0,0,1.93,6.12A4.3,4.3,0,0,0,70.24,214.91Z" style="fill:#fbb85e"/><path d="M215.46,121.64a14.79,14.79,0,1,0-14.79-14.78A14.79,14.79,0,0,0,215.46,121.64Z" style="fill:#fbb85e"/></svg>