<svg id="a9591c29-1d89-477c-ba43-4a859c8d6f78" data-name="Layer 1" xmlns="http://www.w3.org/2000/svg" viewBox="0 0 300 300"><title>Base Icons</title><path d="M244.24,229.68l-19.59-68.76a3.39,3.39,0,0,0-3.26-2.46H173.93c11.24-15.07,16.73-29.49,16.3-42.89-1.19-37.75-39.59-38.18-40-38.18s-38.79.43-40,38.18c-.51,15.89,7.48,31.1,16.25,42.89H79.1a3.41,3.41,0,0,0-3.26,2.46L56.25,229.68a3.42,3.42,0,0,0,1.87,4,3.27,3.27,0,0,0,1.45.29H240.93a3.23,3.23,0,0,0,1.44-.29A3.41,3.41,0,0,0,244.24,229.68ZM117,115.89c1-31.14,31.91-31.62,33.22-31.63a42.32,42.32,0,0,1,16.41,4c10.74,5.2,16.39,14.48,16.8,27.6.83,26.06-25.43,51.54-33.21,58.5C142.46,167.43,116.21,142,117,115.89Zm-35.4,49.36h50.3a135.82,135.82,0,0,0,16.18,16.13,3.39,3.39,0,0,0,4.28,0,136.68,136.68,0,0,0,16.12-16.13h50.35l8.44,29.61-16.39,11.56L77.09,181.19Zm17.72,62H64l11.25-39.49h0l16.54,3.11,7.59,36.38Zm6.94,0-7.31-35,104.19,19.64-21.82,15.38Zm130.23,0H193.14l18.06-12.73,18.07-12.74h0l3.63,12.74,3.62,12.73Z" style="fill:#fbb85e;stroke:#fbb85e;stroke-miterlimit:10;stroke-width:4px"/><path d="M150.25,133.27a16.14,16.14,0,1,0-16.14-16.14A16.16,16.16,0,0,0,150.25,133.27Zm9.34-16.14a9.35,9.35,0,1,1-9.34-9.34A9.36,9.36,0,0,1,159.59,117.13Z" style="fill:#fbb85e;stroke:#fbb85e;stroke-miterlimit:10;stroke-width:4px"/></svg>